<svg xmlns="http://www.w3.org/2000/svg" xmlns:xlink="http://www.w3.org/1999/xlink" viewBox="0,0,256,256" width="48px" height="48px"><g fill="#e4dede" fill-rule="nonzero" stroke="none" stroke-width="1" stroke-linecap="butt" stroke-linejoin="miter" stroke-miterlimit="10" stroke-dasharray="" stroke-dashoffset="0" font-family="none" font-weight="none" font-size="none" text-anchor="none" style="mix-blend-mode: normal"><g transform="scale(5.33333,5.33333)"><path d="M15,4c-6.06341,0 -11,4.93659 -11,11v18c0,6.06341 4.93659,11 11,11h18c6.06341,0 11,-4.93659 11,-11v-18c0,-6.06341 -4.93659,-11 -11,-11zM15,6h18c4.98259,0 9,4.01741 9,9v18c0,4.98259 -4.01741,9 -9,9h-18c-4.98259,0 -9,-4.01741 -9,-9v-18c0,-4.98259 4.01741,-9 9,-9zM35,11c-1.105,0 -2,0.895 -2,2c0,1.105 0.895,2 2,2c1.105,0 2,-0.895 2,-2c0,-1.105 -0.895,-2 -2,-2zM24,14c-5.51133,0 -10,4.48867 -10,10c0,5.51133 4.48867,10 10,10c5.51133,0 10,-4.48867 10,-10c0,-5.51133 -4.48867,-10 -10,-10zM24,16c4.43067,0 8,3.56933 8,8c0,4.43067 -3.56933,8 -8,8c-4.43067,0 -8,-3.56933 -8,-8c0,-4.43067 3.56933,-8 8,-8z"></path></g></g></svg>